<?xml version="1.0" standalone="no"?>
<!DOCTYPE svg PUBLIC "-//W3C//DTD SVG 20010904//EN"
 "http://www.w3.org/TR/2001/REC-SVG-20010904/DTD/svg10.dtd">
<svg version="1.0" xmlns="http://www.w3.org/2000/svg"
 width="180.000000pt" height="180.000000pt" viewBox="0 0 180.000000 180.000000"
 preserveAspectRatio="xMidYMid meet">
<metadata>
Created by potrace 1.15, written by Peter Selinger 2001-2017
</metadata>
<g transform="translate(0.000000,180.000000) scale(0.100000,-0.100000)"
fill="#000000" stroke="none">
<path d="M0 900 l0 -900 900 0 900 0 0 900 0 900 -900 0 -900 0 0 -900z m584
474 c14 -13 16 -60 16 -362 0 -332 -1 -347 -21 -390 -43 -87 -130 -122 -321
-129 l-138 -6 -11 29 c-7 18 -8 42 -2 64 l8 35 111 6 c123 6 180 26 201 69 9
18 13 112 13 352 0 370 -5 347 82 348 29 0 52 -6 62 -16z m624 -6 c16 -16 15
-93 0 -106 -7 -5 -70 -12 -139 -14 -138 -5 -181 -20 -207 -69 -15 -28 -10 -93
9 -115 36 -44 63 -48 349 -54 251 -6 280 -9 331 -29 64 -24 118 -73 135 -123
16 -43 16 -173 0 -216 -17 -49 -71 -99 -135 -124 -54 -22 -68 -23 -444 -26
-289 -2 -392 0 -403 9 -17 14 -19 90 -2 107 9 9 100 12 348 12 352 1 406 5
449 37 23 18 26 28 29 90 3 66 1 72 -23 91 -42 33 -113 42 -334 42 -115 0
-233 5 -262 10 -83 16 -156 56 -187 103 -25 37 -27 49 -27 137 0 88 2 100 27
137 30 45 103 87 178 102 71 14 294 13 308 -1z"/>
</g>
</svg>
